PathFileType	4	(X/Y/Z)	Walk2.trc
DataRate	CameraRate	NumFrames	NumMarkers	Units	OrigDataRate	OrigDataStartFrame	OrigNumFrames
200.000000	200.000000	8	59	mm	200.000000	273	485
Frame#	Times		LBHD		C7		T10		RBack		LPSI		RPSI		RCAR		LElbowM		LMT1		LLFC		RWRR		LFHD		LUA1		RUA1		RFA1		CLAV		LCAR		RFHD		RElbowM		LWRU		LACR1		RBHD		RACR1		RTH3		LFA1		RWRU		RTH4		RTH2		RTB1		RTB4		RCAL		RToe		RTB3		RLFC		RMT1		RMT5		LWRR		RElbow		RTB2		LTH4		RTH1		LTH1		LTB3		STRN		LElbow		RMMAL		LTH3		RASI		LTH2		LCAL		LASI		LLMAL		RLMAL		LTB2		LTB4		LMT5		LMMAL		LToe		LTB1
			X1	Y1	Z1	X2	Y2	Z2	X3	Y3	Z3	X4	Y4	Z4	X5	Y5	Z5	X6	Y6	Z6	X7	Y7	Z7	X8	Y8	Z8	X9	Y9	Z9	X10	Y10	Z10	X11	Y11	Z11	X12	Y12	Z12	X13	Y13	Z13	X14	Y14	Z14	X15	Y15	Z15	X16	Y16	Z16	X17	Y17	Z17	X18	Y18	Z18	X19	Y19	Z19	X20	Y20	Z20	X21	Y21	Z21	X22	Y22	Z22	X23	Y23	Z23	X24	Y24	Z24	X25	Y25	Z25	X26	Y26	Z26	X27	Y27	Z27	X28	Y28	Z28	X29	Y29	Z29	X30	Y30	Z30	X31	Y31	Z31	X32	Y32	Z32	X33	Y33	Z33	X34	Y34	Z34	X35	Y35	Z35	X36	Y36	Z36	X37	Y37	Z37	X38	Y38	Z38	X39	Y39	Z39	X40	Y40	Z40	X41	Y41	Z41	X42	Y42	Z42	X43	Y43	Z43	X44	Y44	Z44	X45	Y45	Z45	X46	Y46	Z46	X47	Y47	Z47	X48	Y48	Z48	X49	Y49	Z49	X50	Y50	Z50	X51	Y51	Z51	X52	Y52	Z52	X53	Y53	Z53	X54	Y54	Z54	X55	Y55	Z55	X56	Y56	Z56	X57	Y57	Z57	X58	Y58	Z58	X59	Y59	Z59

273	1.365	-104.77	1488.7	-90.655	-136.41	1359.6	-20.101	-177.22	1091.1	-37.123	-167.69	1260.6	104.13	-203.21	903.39	-73.512	-208.44	901.1	26.144	-68.029	737.65	293.57	-146.95	987.77	-236.8	-97.134	47.038	-44.993	-117.33	451.25	-151.92	-32.557	771.42	250.53	67.538	1485.2	-67.283	-71.394	1138.8	-276.63	-81.806	1136.7	211.88	-127.76	871.51	257.72	-16.357	1274.1	-14.527	38.486	771.8	-340.91	73.51	1497.4	8.6733	-156.56	962.36	164.48	-17.335	798.91	-329.24	-55.056	1302.8	-182.59	-106.73	1500.9	32.207	-68.345	1292.2	134.04	36.513	563.03	145.16	-69.976	905.98	-324.71	-106.31	761.77	251.09	3.175	651.24	164.52	68.822	683.79	138.25	122.2	350.83	60.701	111.54	259.83	61.807	23.807	50.008	62.73	231.64	63.076	85.309	115.62	166.77	59.786	83.596	475.26	136.72	180.56	77.52	61.664	154.08	56.351	107.63	42.989	809.88	-288.29	-123.73	998.32	247	78.554	259.77	126.3	-54.098	645.8	-184.12	-25.959	733.85	185.47	-43.066	735.31	-212.15	-143.11	159.15	-53.551	43.418	1168	-20.319	-118.31	1025.5	-302.06	90.37	90.831	20.673	-71.009	555.46	-160.09	10.722	873.47	120.85	2.2914	653.25	-137.92	-252.38	34.412	-55.649	-42.95	866.56	-188.59	-203.68	66.288	-95.802	75.686	81.206	99.673	-153.3	249.68	-130.09	-132.86	249.6	-62.679	-120.61	33.208	-102.33	-187.53	70.657	-16.587	-39.541	23.244	-54.848	-105.91	337.57	-68.181
274	1.37	-98.069	1487.6	-89.974	-129.82	1358.6	-19.576	-170.8	1090.1	-36.841	-161.35	1259.5	104.4	-197.02	902.49	-72.78	-201.75	899.81	26.748	-64.794	736.53	294.76	-139.89	986.75	-236.99	-97.019	46.974	-44.866	-113.74	450.71	-151.84	-28.785	770.09	251.86	74.241	1483.9	-66.676	-64.16	1137.9	-276.29	-76.328	1135.5	212.37	-123.62	870.54	258.28	-9.835	1272.9	-13.989	47.028	771.65	-340.19	80.262	1496.2	9.2964	-151.52	961.32	164.8	-8.9522	798.46	-328.77	-48.32	1301.9	-182.07	-99.978	1499.9	32.896	-61.988	1290.8	134.57	43.546	561.87	144.8	-62.107	905.28	-324.49	-102.61	760.68	251.86	10.427	650.11	164.42	75.908	682.6	137.7	132.41	351.13	60.251	124.85	259.8	61.715	44.236	47.185	63.978	251.78	66.633	84.686	132.09	166.91	60.073	90.764	474.24	136.15	200.05	79.499	61.522	174.62	57.695	107.74	51.189	809.77	-287.57	-119.03	997.31	247.44	92.242	258.93	126.38	-49.099	644.82	-184	-18.492	732.77	185.69	-37.427	734.27	-212.03	-142.03	158.77	-53.429	49.931	1166.8	-19.929	-111.01	1024.6	-302.08	109.13	89.953	21.223	-66.685	554.62	-159.96	17.634	872.14	121.32	7.2359	651.92	-137.74	-252.35	34.759	-55.513	-37.225	865.6	-188.5	-203.4	66.434	-95.681	95.397	80.14	100.34	-151.35	249.39	-129.97	-131.08	249.15	-62.458	-120.58	33.173	-102.21	-187.29	70.678	-16.437	-39.385	23.258	-54.925	-103.26	336.84	-68.022
275	1.375	-91.38	1486.5	-89.279	-123.23	1357.5	-19.041	-164.37	1089	-36.523	-155.01	1258.3	104.68	-190.82	901.62	-72.008	-195.02	898.5	27.387	-61.447	735.4	295.92	-132.82	985.7	-237.17	-96.901	46.919	-44.743	-110.13	450.16	-151.75	-24.945	768.76	253.15	80.932	1482.7	-66.058	-56.914	1136.9	-275.91	-70.85	1134.3	212.88	-119.38	869.55	258.85	-3.3143	1271.7	-13.438	55.519	771.46	-339.48	87	1494.9	9.9307	-146.46	960.26	165.16	-0.61308	797.96	-328.3	-41.592	1300.9	-181.54	-93.231	1498.8	33.599	-55.636	1289.5	135.12	50.429	560.6	144.49	-54.241	904.55	-324.25	-98.828	759.58	252.62	17.576	648.89	164.36	82.922	681.29	137.21	142.43	351.4	59.784	137.93	259.86	61.606	64.408	44.709	65.237	271.51	70.411	83.871	148.28	167.23	60.315	97.795	473.13	135.61	219.15	81.707	61.249	194.83	59.318	107.72	59.349	809.6	-286.84	-114.25	996.27	247.9	105.76	258.22	126.46	-44.134	643.84	-183.89	-11.081	731.62	185.97	-31.851	733.23	-211.93	-140.92	158.39	-53.313	56.455	1165.7	-19.52	-103.69	1023.7	-302.08	127.56	89.328	21.747	-62.359	553.77	-159.84	24.6	870.79	121.82	12.2	650.6	-137.63	-252.31	35.15	-55.363	-31.477	864.65	-188.36	-203.12	66.604	-95.553	114.86	79.381	100.97	-149.38	249.1	-129.85	-129.24	248.68	-62.246	-120.56	33.14	-102.09	-187.03	70.725	-16.281	-39.239	23.274	-55.007	-100.55	336.1	-67.871
276	1.38	-84.707	1485.4	-88.57	-116.65	1356.4	-18.496	-157.91	1087.9	-36.17	-148.67	1257	104.97	-184.59	900.77	-71.194	-188.25	897.19	28.065	-57.986	734.25	297.03	-125.75	984.63	-237.33	-96.78	46.876	-44.623	-106.49	449.62	-151.66	-21.028	767.44	254.39	87.608	1481.5	-65.431	-49.662	1135.9	-275.51	-65.369	1133	213.39	-115.06	868.54	259.44	3.2045	1270.6	-12.874	63.957	771.21	-338.76	93.724	1493.7	10.576	-141.39	959.19	165.55	7.6808	797.43	-327.82	-34.873	1299.9	-180.99	-86.496	1497.6	34.317	-49.289	1288.1	135.67	57.171	559.22	144.25	-46.383	903.81	-324.01	-94.956	758.47	253.37	24.624	647.58	164.34	89.868	679.84	136.81	152.27	351.66	59.292	150.77	260.01	61.474	84.26	42.569	66.507	290.79	74.373	82.862	164.15	167.71	60.504	104.71	471.95	135.12	237.83	84.112	60.844	214.66	61.19	107.57	67.468	809.37	-286.11	-109.4	995.23	248.36	119.11	257.64	126.53	-39.2	642.87	-183.78	-3.7301	730.41	186.28	-26.337	732.19	-211.83	-139.79	158.02	-53.201	62.99	1164.5	-19.093	-96.343	1022.8	-302.06	145.61	88.938	22.246	-58.028	552.93	-159.71	31.625	869.44	122.36	17.184	649.28	-137.57	-252.28	35.592	-55.197	-25.701	863.73	-188.19	-202.84	66.804	-95.415	134.03	78.913	101.56	-147.4	248.82	-129.72	-127.34	248.22	-62.044	-120.55	33.11	-101.96	-186.74	70.805	-16.114	-39.104	23.291	-55.091	-97.781	335.34	-67.727
277	1.385	-78.05	1484.3	-87.845	-110.09	1355.2	-17.937	-151.43	1086.8	-35.783	-142.31	1255.7	105.28	-178.33	899.95	-70.339	-181.43	895.88	28.783	-54.406	733.08	298.1	-118.67	983.55	-237.48	-96.655	46.845	-44.506	-102.82	449.07	-151.56	-17.025	766.11	255.58	94.268	1480.2	-64.793	-42.407	1134.9	-275.08	-59.884	1131.8	213.93	-110.63	867.53	260.03	9.7209	1269.3	-12.297	72.343	770.91	-338.05	100.43	1492.4	11.233	-136.29	958.11	165.96	15.928	796.87	-327.35	-28.164	1298.9	-180.43	-79.775	1496.4	35.051	-42.945	1286.7	136.25	63.784	557.75	144.05	-38.534	903.05	-323.75	-90.99	757.35	254.11	31.577	646.19	164.37	96.749	678.29	136.48	161.93	351.9	58.767	163.34	260.22	61.314	103.73	40.749	67.783	309.57	78.468	81.664	179.66	168.33	60.635	111.54	470.71	134.67	256.03	86.673	60.312	234.06	63.273	107.29	75.544	809.08	-285.37	-104.47	994.16	248.83	132.27	257.18	126.59	-34.293	641.91	-183.67	3.559	729.12	186.61	-20.881	731.16	-211.75	-138.62	157.66	-53.092	69.535	1163.3	-18.648	-88.975	1021.9	-302.02	163.24	88.759	22.718	-53.688	552.08	-159.59	38.712	868.08	122.92	22.19	647.97	-137.57	-252.25	36.089	-55.01	-19.896	862.83	-187.97	-202.56	67.036	-95.263	152.84	78.715	102.09	-145.4	248.55	-129.59	-125.38	247.76	-61.85	-120.54	33.084	-101.83	-186.44	70.919	-15.935	-38.977	23.31	-55.177	-94.948	334.56	-67.592
278	1.39	-71.413	1483.1	-87.104	-103.54	1354.1	-17.362	-144.91	1085.6	-35.363	-135.95	1254.5	105.6	-172.03	899.15	-69.444	-174.57	894.57	29.543	-50.702	731.89	299.12	-111.58	982.45	-237.6	-96.526	46.828	-44.392	-99.113	448.52	-151.45	-12.928	764.79	256.73	100.91	1479	-64.143	-35.154	1133.9	-274.63	-54.39	1130.6	214.47	-106.11	866.5	260.63	16.235	1268.1	-11.706	80.675	770.56	-337.33	107.12	1491.1	11.902	-131.16	957.01	166.4	24.127	796.27	-326.87	-21.468	1297.9	-179.85	-73.07	1495.2	35.801	-36.603	1285.3	136.84	70.28	556.19	143.92	-30.698	902.27	-323.47	-86.925	756.22	254.84	38.438	644.72	164.44	103.57	676.62	136.25	171.4	352.1	58.201	175.63	260.49	61.122	122.74	39.227	69.062	327.81	82.64	80.288	194.78	169.07	60.704	118.32	469.43	134.26	273.72	89.344	59.661	252.96	65.522	106.88	83.576	808.74	-284.62	-99.473	993.09	249.32	145.24	256.85	126.65	-29.409	640.96	-183.56	10.783	727.76	186.96	-15.476	730.13	-211.67	-137.43	157.31	-52.983	76.09	1162.2	-18.188	-81.591	1020.9	-301.95	180.39	88.762	23.164	-49.334	551.24	-159.46	45.864	866.73	123.53	27.222	646.65	-137.63	-252.21	36.648	-54.798	-14.055	861.96	-187.72	-202.28	67.306	-95.095	171.24	78.76	102.57	-143.38	248.29	-129.45	-123.36	247.3	-61.663	-120.55	33.064	-101.7	-186.11	71.072	-15.74	-38.857	23.329	-55.265	-92.05	333.77	-67.465
279	1.395	-64.794	1481.9	-86.348	-97.01	1352.9	-16.769	-138.37	1084.4	-34.91	-129.57	1253.1	105.95	-165.69	898.36	-68.512	-167.66	893.27	30.347	-46.87	730.67	300.08	-104.49	981.35	-237.7	-96.392	46.824	-44.281	-95.369	447.98	-151.33	-8.7302	763.46	257.82	107.53	1477.7	-63.48	-27.906	1132.8	-274.16	-48.884	1129.3	215.04	-101.5	865.47	261.25	22.747	1266.9	-11.101	88.953	770.18	-336.61	113.79	1489.8	12.582	-125.98	955.91	166.86	32.276	795.65	-326.39	-14.786	1296.8	-179.26	-66.384	1494	36.568	-30.258	1283.9	137.44	76.677	554.55	143.85	-22.879	901.48	-323.18	-82.757	755.08	255.55	45.216	643.18	164.57	110.34	674.86	136.11	180.7	352.27	57.589	187.63	260.79	60.895	141.24	37.979	70.333	345.45	86.818	78.756	209.48	169.9	60.708	125.06	468.13	133.89	290.83	92.071	58.904	271.32	67.888	106.37	91.562	808.35	-283.87	-94.403	992.01	249.81	157.99	256.63	126.69	-24.538	640.02	-183.45	17.939	726.34	187.31	-10.114	729.11	-211.6	-136.2	156.98	-52.87	82.654	1161	-17.712	-74.196	1020	-301.86	197.02	88.917	23.581	-44.959	550.41	-159.33	53.081	865.39	124.16	32.283	645.35	-137.73	-252.17	37.272	-54.558	-8.177	861.1	-187.42	-201.99	67.618	-94.907	189.17	79.016	103.01	-141.34	248.06	-129.29	-121.28	246.84	-61.479	-120.55	33.052	-101.55	-185.76	71.267	-15.526	-38.743	23.349	-55.355	-89.084	332.97	-67.344
280	1.4	-58.196	1480.7	-85.575	-90.491	1351.6	-16.154	-131.79	1083.2	-34.425	-123.18	1251.8	106.31	-159.32	897.6	-67.544	-160.71	891.97	31.194	-42.907	729.44	301	-97.394	980.24	-237.76	-96.251	46.836	-44.172	-91.581	447.44	-151.2	-4.4262	762.12	258.86	114.13	1476.4	-62.803	-20.667	1131.8	-273.66	-43.36	1128.1	215.62	-96.783	864.43	261.87	29.259	1265.7	-10.482	97.174	769.75	-335.89	120.44	1488.5	13.274	-120.75	954.81	167.33	40.374	795.01	-325.89	-8.1204	1295.8	-178.64	-59.717	1492.8	37.353	-23.909	1282.5	138.07	82.991	552.85	143.83	-15.081	900.68	-322.87	-78.478	753.94	256.25	51.916	641.56	164.74	117.06	673.02	136.07	189.83	352.4	56.928	199.33	261.12	60.631	159.15	36.975	71.584	362.46	90.928	77.093	223.73	170.78	60.647	131.82	466.82	133.55	307.34	94.795	58.055	289.06	70.311	105.75	99.499	807.91	-283.11	-89.263	990.92	250.32	170.52	256.51	126.7	-19.674	639.09	-183.33	25.023	724.84	187.65	-4.7857	728.1	-211.53	-134.93	156.67	-52.751	89.227	1159.8	-17.222	-66.796	1019	-301.73	213.07	89.19	23.966	-40.556	549.58	-159.2	60.363	864.05	124.84	37.378	644.04	-137.88	-252.12	37.968	-54.286	-2.2562	860.27	-187.1	-201.69	67.978	-94.697	206.56	79.446	103.38	-139.28	247.84	-129.13	-119.14	246.39	-61.296	-120.57	33.05	-101.4	-185.38	71.509	-15.292	-38.633	23.369	-55.447	-86.05	332.16	-67.228
